<?xml version="1.0" encoding="utf-8"?>
<svg version="1.1" width="25px" height="21px" xmlns:xlink="http://www.w3.org/1999/xlink" xmlns="http://www.w3.org/2000/svg">
  <g transform="translate(-154 -509 )">
    <path d="M 20.5915178571429 11.265625  C 22.3400297619048 9.55208333333333  23.2142857142857 7.9296875  23.2142857142857 6.3984375  C 23.2142857142857 5.66015625  23.1143043154762 5.00846354166667  22.9143415178571 4.443359375  C 22.7143787202381 3.87825520833333  22.4586123511905 3.42936197916667  22.1470424107143 3.0966796875  C 21.8354724702381 2.76399739583333  21.4564732142857 2.49283854166667  21.0100446428571 2.283203125  C 20.5636160714286 2.07356770833333  20.1264880952381 1.93229166666667  19.6986607142857 1.859375  C 19.2708333333333 1.78645833333333  18.8151041666667 1.75  18.3314732142857 1.75  C 17.8478422619048 1.75  17.3270089285714 1.8662109375  16.7689732142857 2.0986328125  C 16.2109375 2.3310546875  15.6970796130952 2.62272135416666  15.2273995535714 2.9736328125  C 14.7577194940476 3.32454427083333  14.35546875 3.65266927083333  14.0206473214286 3.9580078125  C 13.6858258928571 4.26334635416667  13.4068080357143 4.54361979166667  13.18359375 4.798828125  C 13.0161830357143 4.99934895833333  12.788318452381 5.099609375  12.5 5.099609375  C 12.211681547619 5.099609375  11.9838169642857 4.99934895833333  11.81640625 4.798828125  C 11.5931919642857 4.54361979166667  11.3141741071429 4.26334635416667  10.9793526785714 3.9580078125  C 10.64453125 3.65266927083333  10.2422805059524 3.32454427083333  9.77260044642857 2.9736328125  C 9.30292038690476 2.62272135416666  8.7890625 2.3310546875  8.23102678571429 2.0986328125  C 7.67299107142857 1.8662109375  7.15215773809524 1.75  6.66852678571429 1.75  C 6.18489583333333 1.75  5.72916666666667 1.78645833333333  5.30133928571429 1.859375  C 4.87351190476191 1.93229166666667  4.43638392857143 2.07356770833333  3.98995535714286 2.283203125  C 3.54352678571429 2.49283854166667  3.1645275297619 2.76399739583333  2.85295758928571 3.0966796875  C 2.54138764880952 3.42936197916667  2.2856212797619 3.87825520833333  2.08565848214286 4.443359375  C 1.88569568452381 5.00846354166667  1.78571428571429 5.66015625  1.78571428571429 6.3984375  C 1.78571428571429 7.9296875  2.65531994047619 9.54752604166667  4.39453125 11.251953125  L 12.5 18.908203125  L 20.5915178571429 11.265625  Z M 23.2282366071429 1.6953125  C 24.409412202381 2.82552083333333  25 4.39322916666667  25 6.3984375  C 25 8.41276041666667  23.9350818452381 10.4635416666667  21.8052455357143 12.55078125  L 13.1138392857143 20.75390625  C 12.9464285714286 20.91796875  12.7418154761905 21  12.5 21  C 12.2581845238095 21  12.0535714285714 20.91796875  11.8861607142857 20.75390625  L 3.18080357142857 12.5234375  C 3.08779761904762 12.4505208333333  2.95991443452381 12.33203125  2.79715401785714 12.16796875  C 2.63439360119048 12.00390625  2.37630208333333 11.7054036458333  2.02287946428571 11.2724609375  C 1.6694568452381 10.8395182291667  1.35323660714286 10.3951822916667  1.07421875 9.939453125  C 0.795200892857143 9.48372395833333  0.546409970238095 8.93229166666667  0.327845982142857 8.28515625  C 0.109281994047619 7.63802083333333  0 7.00911458333333  0 6.3984375  C 0 4.39322916666667  0.590587797619048 2.82552083333333  1.77176339285714 1.6953125  C 2.95293898809524 0.565104166666666  4.58519345238095 0  6.66852678571429 0  C 7.24516369047619 0  7.83342633928571 0.097981770833332  8.43331473214286 0.293945312500001  C 9.033203125 0.489908854166665  9.59123883928571 0.754231770833332  10.107421875 1.0869140625  C 10.6236049107143 1.41959635416667  11.0677083333333 1.73177083333333  11.4397321428571 2.0234375  C 11.811755952381 2.31510416666666  12.1651785714286 2.625  12.5 2.953125  C 12.8348214285714 2.625  13.188244047619 2.31510416666666  13.5602678571429 2.0234375  C 13.9322916666667 1.73177083333333  14.3763950892857 1.41959635416667  14.892578125 1.0869140625  C 15.4087611607143 0.754231770833332  15.966796875 0.489908854166665  16.5666852678571 0.293945312500001  C 17.1665736607143 0.097981770833332  17.7548363095238 0  18.3314732142857 0  C 20.4148065476191 0  22.0470610119048 0.565104166666666  23.2282366071429 1.6953125  Z " fill-rule="nonzero" fill="#aaaaaa" stroke="none" transform="matrix(1 0 0 1 154 509 )" />
  </g>
</svg>