<?xml version="1.0" encoding="utf-8"?>
<svg version="1.1" width="26px" height="19px" xmlns:xlink="http://www.w3.org/1999/xlink" xmlns="http://www.w3.org/2000/svg">
  <g transform="translate(-208 -5 )">
    <path d="M 17.2046875 10.2354403409091  C 17.2904513888889 10.1499763257576  17.3333333333333 10.0487689393939  17.3333333333333 9.93181818181818  C 17.3333333333333 9.80587121212121  17.2927083333333 9.70241477272727  17.2114583333333 9.62144886363636  L 12.4447916666667 4.87144886363636  C 12.3635416666667 4.79048295454545  12.2597222222222 4.75  12.1333333333333 4.75  C 12.0069444444444 4.75  11.903125 4.79048295454545  11.821875 4.87144886363636  L 7.06875 9.60795454545455  C 6.97847222222222 9.71590909090909  6.93333333333333 9.82386363636364  6.93333333333333 9.93181818181818  C 6.93333333333333 10.0577651515152  6.97395833333333 10.1612215909091  7.05520833333333 10.2421875  C 7.13645833333333 10.3231534090909  7.24027777777778 10.3636363636364  7.36666666666667 10.3636363636364  L 10.4 10.3636363636364  L 10.4 15.1136363636364  C 10.4 15.2305871212121  10.4428819444444 15.3317945075758  10.5286458333333 15.4172585227273  C 10.6144097222222 15.5027225378788  10.7159722222222 15.5454545454545  10.8333333333333 15.5454545454545  L 13.4333333333333 15.5454545454545  C 13.5506944444444 15.5454545454545  13.6522569444444 15.5027225378788  13.7380208333333 15.4172585227273  C 13.8237847222222 15.3317945075758  13.8666666666667 15.2305871212121  13.8666666666667 15.1136363636364  L 13.8666666666667 10.3636363636364  L 16.9 10.3636363636364  C 17.0173611111111 10.3636363636364  17.1189236111111 10.3209043560606  17.2046875 10.2354403409091  Z M 24.8692708333333 10.5997869318182  C 25.6230902777778 11.5398910984849  26 12.6126893939394  26 13.8181818181818  C 26 15.2485795454545  25.4921875 16.4698153409091  24.4765625 17.4818892045455  C 23.4609375 18.4939630681818  22.2354166666667 19  20.8 19  L 6.06666666666667 19  C 4.39652777777778 19  2.96788194444444 18.4084990530303  1.78072916666667 17.2254971590909  C 0.593576388888889 16.0424952651515  0 14.6188446969697  0 12.9545454545455  C 0 11.7850378787879  0.315972222222222 10.7054924242424  0.947916666666667 9.71590909090909  C 1.57986111111111 8.72632575757575  2.42847222222222 7.98413825757575  3.49375 7.48934659090909  C 3.47569444444444 7.21946022727273  3.46666666666667 7.02604166666667  3.46666666666667 6.90909090909091  C 3.46666666666667 5.00189393939394  4.14375 3.37357954545455  5.49791666666667 2.02414772727273  C 6.85208333333333 0.674715909090909  8.48611111111111 0  10.4 0  C 11.8083333333333 0  13.0970486111111 0.391335227272728  14.2661458333333 1.17400568181818  C 15.4352430555556 1.95667613636364  16.2861111111111 2.99573863636364  16.81875 4.29119318181818  C 17.4597222222222 3.73342803030303  18.2090277777778 3.45454545454545  19.0666666666667 3.45454545454545  C 20.0236111111111 3.45454545454545  20.840625 3.79190340909091  21.5177083333333 4.46661931818182  C 22.1947916666667 5.14133522727273  22.5333333333333 5.95549242424242  22.5333333333333 6.90909090909091  C 22.5333333333333 7.59280303030303  22.3482638888889 8.21354166666667  21.978125 8.77130681818182  C 23.1517361111111 9.05018939393939  24.1154513888889 9.65968276515151  24.8692708333333 10.5997869318182  Z " fill-rule="nonzero" fill="#aaaaaa" stroke="none" transform="matrix(1 0 0 1 208 5 )" />
  </g>
</svg>