<?xml version="1.0" encoding="utf-8"?>
<svg version="1.1" width="28px" height="23px" xmlns:xlink="http://www.w3.org/1999/xlink" xmlns="http://www.w3.org/2000/svg">
  <g transform="translate(-7 -4 )">
    <path d="M 20.1418269230769 8.05326704545455  C 20.3549679487179 7.84635416666667  20.4615384615385 7.60132575757576  20.4615384615385 7.31818181818182  C 20.4615384615385 7.03503787878788  20.3549679487179 6.79000946969697  20.1418269230769 6.58309659090909  C 19.9286858974359 6.37618371212121  19.6762820512821 6.27272727272727  19.3846153846154 6.27272727272727  L 17.2307692307692 6.27272727272727  L 17.2307692307692 4.18181818181818  C 17.2307692307692 3.89867424242424  17.1241987179487 3.65364583333333  16.9110576923077 3.44673295454546  C 16.6979166666667 3.23982007575757  16.4455128205128 3.13636363636364  16.1538461538462 3.13636363636364  C 15.8621794871795 3.13636363636364  15.6097756410256 3.23982007575757  15.3966346153846 3.44673295454546  C 15.1834935897436 3.65364583333333  15.0769230769231 3.89867424242424  15.0769230769231 4.18181818181818  L 15.0769230769231 6.27272727272727  L 12.9230769230769 6.27272727272727  C 12.6314102564103 6.27272727272727  12.3790064102564 6.37618371212121  12.1658653846154 6.58309659090909  C 11.9527243589744 6.79000946969697  11.8461538461538 7.03503787878788  11.8461538461538 7.31818181818182  C 11.8461538461538 7.60132575757576  11.9527243589744 7.84635416666667  12.1658653846154 8.05326704545455  C 12.3790064102564 8.26017992424243  12.6314102564103 8.36363636363636  12.9230769230769 8.36363636363636  L 15.0769230769231 8.36363636363636  L 15.0769230769231 10.4545454545455  C 15.0769230769231 10.7376893939394  15.1834935897436 10.9827178030303  15.3966346153846 11.1896306818182  C 15.6097756410256 11.3965435606061  15.8621794871795 11.5  16.1538461538462 11.5  C 16.4455128205128 11.5  16.6979166666667 11.3965435606061  16.9110576923077 11.1896306818182  C 17.1241987179487 10.9827178030303  17.2307692307692 10.7376893939394  17.2307692307692 10.4545454545455  L 17.2307692307692 8.36363636363636  L 19.3846153846154 8.36363636363636  C 19.6762820512821 8.36363636363636  19.9286858974359 8.26017992424243  20.1418269230769 8.05326704545455  Z M 10.1382211538462 19.4307528409091  C 10.5588942307692 19.8391335227273  10.7692307692308 20.3319128787879  10.7692307692308 20.9090909090909  C 10.7692307692308 21.4862689393939  10.5588942307692 21.9790482954545  10.1382211538462 22.3874289772727  C 9.71754807692308 22.7958096590909  9.2099358974359 23  8.61538461538462 23  C 8.02083333333333 23  7.51322115384616 22.7958096590909  7.09254807692308 22.3874289772727  C 6.671875 21.9790482954545  6.46153846153846 21.4862689393939  6.46153846153846 20.9090909090909  C 6.46153846153846 20.3319128787879  6.671875 19.8391335227273  7.09254807692308 19.4307528409091  C 7.51322115384616 19.0223721590909  8.02083333333333 18.8181818181818  8.61538461538462 18.8181818181818  C 9.2099358974359 18.8181818181818  9.71754807692308 19.0223721590909  10.1382211538462 19.4307528409091  Z M 25.2151442307692 19.4307528409091  C 25.6358173076923 19.8391335227273  25.8461538461538 20.3319128787879  25.8461538461538 20.9090909090909  C 25.8461538461538 21.4862689393939  25.6358173076923 21.9790482954545  25.2151442307692 22.3874289772727  C 24.7944711538462 22.7958096590909  24.286858974359 23  23.6923076923077 23  C 23.0977564102564 23  22.5901442307692 22.7958096590909  22.1694711538462 22.3874289772727  C 21.7487980769231 21.9790482954545  21.5384615384615 21.4862689393939  21.5384615384615 20.9090909090909  C 21.5384615384615 20.3319128787879  21.7487980769231 19.8391335227273  22.1694711538462 19.4307528409091  C 22.5901442307692 19.0223721590909  23.0977564102564 18.8181818181818  23.6923076923077 18.8181818181818  C 24.286858974359 18.8181818181818  24.7944711538462 19.0223721590909  25.2151442307692 19.4307528409091  Z M 27.6802884615385 2.40127840909091  C 27.8934294871795 2.60819128787879  28 2.85321969696969  28 3.13636363636364  L 28 11.5  C 28 11.7613636363636  27.9102564102564 11.9927793560606  27.7307692307692 12.1942471590909  C 27.5512820512821 12.3957149621212  27.3213141025641 12.5127840909091  27.0408653846154 12.5454545454545  L 9.47355769230769 14.5383522727273  C 9.48477564102564 14.6145833333333  9.51001602564103 14.7316524621212  9.54927884615385 14.8895596590909  C 9.58854166666667 15.0474668560606  9.62219551282051 15.1917613636364  9.65024038461538 15.3224431818182  C 9.67828525641026 15.453125  9.69230769230769 15.5729166666667  9.69230769230769 15.6818181818182  C 9.69230769230769 15.8560606060606  9.55769230769231 16.2045454545455  9.28846153846154 16.7272727272727  L 24.7692307692308 16.7272727272727  C 25.0608974358974 16.7272727272727  25.3133012820513 16.8307291666667  25.5264423076923 17.0376420454545  C 25.7395833333333 17.2445549242424  25.8461538461538 17.4895833333333  25.8461538461538 17.7727272727273  C 25.8461538461538 18.0558712121212  25.7395833333333 18.3008996212121  25.5264423076923 18.5078125  C 25.3133012820513 18.7147253787879  25.0608974358974 18.8181818181818  24.7692307692308 18.8181818181818  L 7.53846153846154 18.8181818181818  C 7.24679487179487 18.8181818181818  6.99439102564103 18.7147253787879  6.78125 18.5078125  C 6.56810897435897 18.3008996212121  6.46153846153846 18.0558712121212  6.46153846153846 17.7727272727273  C 6.46153846153846 17.6202651515152  6.52323717948718 17.4051846590909  6.64663461538462 17.1274857954545  C 6.77003205128205 16.8497869318182  6.9354967948718 16.5258049242424  7.14302884615385 16.1555397727273  C 7.3505608974359 15.7852746212121  7.46554487179487 15.5783617424242  7.48798076923077 15.5348011363636  L 4.50961538461539 2.09090909090909  L 1.07692307692308 2.09090909090909  C 0.78525641025641 2.09090909090909  0.532852564102564 1.98745265151515  0.319711538461538 1.78053977272727  C 0.106570512820513 1.57362689393939  0 1.32859848484848  0 1.04545454545454  C 0 0.762310606060605  0.106570512820513 0.517282196969694  0.319711538461538 0.310369318181819  C 0.532852564102564 0.103456439393937  0.78525641025641 0  1.07692307692308 0  L 5.38461538461539 0  C 5.56410256410256 0  5.72395833333333 0.0353929924242409  5.86418269230769 0.106178977272728  C 6.00440705128205 0.176964962121212  6.11658653846154 0.261363636363636  6.20072115384615 0.359375  C 6.28485576923077 0.457386363636364  6.35777243589744 0.590790719696966  6.41947115384615 0.759588068181819  C 6.48116987179487 0.928385416666665  6.52323717948718 1.07267992424242  6.54567307692308 1.19247159090909  C 6.56810897435898 1.31226325757576  6.59895833333333 1.47289299242424  6.63822115384615 1.67436079545454  C 6.67748397435898 1.87582859848485  6.70272435897436 2.01467803030303  6.71394230769231 2  L 26.9230769230769 2  C 27.2147435897436 2.09090909090909  27.4671474358974 2.19436553030303  27.6802884615385 2.40127840909091  Z " fill-rule="nonzero" fill="#aaaaaa" stroke="none" transform="matrix(1 0 0 1 7 4 )" />
  </g>
</svg>